<svg width="102" height="102" viewBox="0 0 102 102" fill="none" xmlns="http://www.w3.org/2000/svg">
<path d="M24.9852 0.0257684C22.4568 0.28663 20.8074 0.637789 18.8227 1.37021C15.9226 2.43372 13.2401 4.04905 10.8476 6.14598C9.76912 7.08909 7.3041 9.8482 6.41596 11.0923C0.760896 19.0085 -1.28725 29.483 0.797147 39.777C2.73654 49.3185 7.92035 59.3818 16.4573 70.1975C23.644 79.2775 33.4588 88.9594 43.9895 97.317C46.4364 99.2534 49.7715 101.712 50.2246 101.902C50.5327 102.033 51.4571 102.033 51.7652 101.902C52.2002 101.722 55.2453 99.4942 57.6831 97.5679C69.3286 88.3976 80.2762 77.3611 87.8525 67.1675C97.4861 54.2047 102.344 41.7435 101.981 30.9178C101.736 23.403 99.5614 16.6707 95.5738 11.0923C94.6857 9.8482 92.2207 7.08909 91.1422 6.14598C87.4809 2.92534 83.1762 0.888618 78.5905 0.206365C77.1586 -0.00433099 73.8689 -0.0344304 72.5186 0.156199C64.6885 1.25984 57.8462 6.21621 53.4146 13.9919C52.7893 15.0955 51.6383 17.5235 51.2668 18.5469C51.149 18.868 51.0221 19.1288 50.9949 19.1288C50.9677 19.1288 50.8408 18.868 50.723 18.5469C50.6143 18.2359 50.2155 17.3229 49.853 16.5202C48.1946 12.8983 46.1011 9.8783 43.2917 7.09913C39.5579 3.3969 34.791 0.968883 29.7884 0.206365C28.8368 0.0659009 25.7556 -0.0544966 24.9852 0.0257684ZM28.6828 4.8818C36.0235 5.75469 42.5395 11.002 46.092 18.9282C47.7958 22.7307 48.6296 26.433 48.8108 30.8877C48.8743 32.6134 48.8833 32.6736 49.1461 33.1351C50.0161 34.7103 51.9737 34.7103 52.8437 33.1351C53.1065 32.6736 53.1156 32.6134 53.179 30.8877C53.4327 24.4163 55.354 18.6272 58.8431 13.8113C61.1088 10.701 64.2626 8.05227 67.5342 6.53727C71.4129 4.73131 75.6452 4.30992 79.814 5.29316C82.0071 5.81488 84.7259 7.08909 86.6562 8.49373C92.6466 12.8581 96.5164 19.9315 97.4951 28.3593C97.6854 29.9546 97.6582 34.4093 97.4589 35.8842C96.5345 42.5261 94.151 48.8871 89.9188 56.0106C86.3844 61.9603 82.56 67.0471 76.7961 73.4583C72.002 78.7858 68.1504 82.5984 62.6403 87.4545C59.4322 90.2838 53.1518 95.3606 51.4752 96.4943L50.9949 96.8053L50.5236 96.4943C50.2608 96.3137 49.1099 95.4408 47.9589 94.5579C36.4132 85.6184 25.5652 74.8529 18.0161 64.8298C10.8838 55.3685 6.4069 46.2885 4.92063 38.242C4.52188 36.1049 4.40406 34.9712 4.34969 32.814C4.23187 28.2189 4.94782 24.0651 6.51565 20.1422C9.91413 11.6943 16.3667 6.09581 24.0337 4.942C25.1393 4.77144 27.4956 4.74134 28.6828 4.8818Z" fill="white"/>
<path d="M31.0559 18.3875C30.7025 18.6483 30.6028 18.839 30.6028 19.2503C30.6028 19.5914 30.7387 19.8423 31.5815 21.1165C34.2369 25.1097 35.2972 26.725 35.3969 26.9457C35.4694 27.0862 35.4875 27.3169 35.4603 27.5176C35.3425 28.1999 34.5631 28.4908 34.1009 28.0293C33.9741 27.9089 32.8322 26.2334 31.5543 24.297C30.2312 22.2903 29.1437 20.7352 29.0078 20.6549C28.464 20.3439 27.7934 20.8155 27.7934 21.5078C27.7934 21.7987 28.1377 22.3706 30.0318 25.2301C31.2643 27.0862 32.3609 28.7617 32.4787 28.9523C32.8322 29.5343 32.7325 30.1363 32.225 30.4272C31.8715 30.6279 31.509 30.5376 31.219 30.1864C31.0922 30.0359 29.9865 28.4005 28.7631 26.5544C27.5487 24.7083 26.4702 23.1231 26.3796 23.0228C25.8812 22.5412 25.0746 22.9525 25.0746 23.685C25.0746 24.0261 25.8268 25.2401 29.1256 30.1664C29.8778 31.3101 29.9684 31.4807 29.9684 31.8218C29.9684 32.4138 29.3521 32.8954 28.8537 32.6847C28.5728 32.5643 28.4549 32.3937 25.8449 28.4306C24.4765 26.3437 23.6699 25.21 23.4977 25.1097C22.8089 24.7384 22.0024 25.6314 22.3649 26.3738C22.5371 26.725 28.7087 36.0257 28.9987 36.3769C30.059 37.621 31.6903 38.4036 33.2853 38.4236L34.0556 38.4337L36.566 42.2362C37.9435 44.3331 39.1579 46.1592 39.2576 46.2896L39.4388 46.5304H43.0548C45.0395 46.5304 46.6889 46.5103 46.707 46.4802C46.7342 46.4501 45.5651 44.6542 39.6654 35.7448L38.8679 34.5508L38.9947 34.2097C39.5838 32.6546 39.5294 30.5476 38.8679 28.9423C38.596 28.2801 32.524 18.9995 32.0437 18.4978C31.7356 18.1868 31.3822 18.1467 31.0559 18.3875Z" fill="white"/>
<path d="M73.2888 18.3372C70.4704 18.889 67.8875 21.317 66.3106 24.8989C65.5494 26.6246 65.2231 28.0091 65.2231 29.5041C65.2231 30.397 65.4587 31.601 65.7578 32.2431L65.9391 32.6344L63.8003 36.2965C58.8974 44.6942 57.8824 46.45 57.9005 46.4801C57.9549 46.5403 64.1175 46.5403 64.2081 46.4801C64.2534 46.45 65.6762 44.0621 67.3619 41.1626L70.4341 35.9052L71.2226 35.8952C73.4338 35.8651 75.5726 34.2297 77.5029 31.1194C78.1373 30.1061 78.8623 28.3603 79.1433 27.2065C79.3517 26.3537 79.388 25.9925 79.397 24.7985C79.4061 23.1631 79.2883 22.531 78.7264 21.2769C77.9289 19.4709 76.4245 18.3874 74.5757 18.277C74.1407 18.2569 73.5607 18.277 73.2888 18.3372Z" fill="white"/>
<path d="M22.6282 48.5256C21.7491 48.646 21.0241 49.3282 20.7704 50.2713C20.5982 50.9135 20.5982 51.1041 20.8157 52.1676C21.3141 54.6658 22.3563 57.0939 23.9695 59.5018C24.7942 60.7359 26.7789 62.9532 28.0295 64.0468C31.0564 66.6956 34.9352 68.8527 39.0315 70.1771L40.255 70.5784L40.3003 72.264C40.3456 73.7589 40.3728 74.0097 40.545 74.3709C40.8168 74.9328 41.4784 75.5649 41.9497 75.7053C42.2397 75.7956 44.5959 75.8157 50.9941 75.7956C60.673 75.7655 59.9299 75.8157 60.6277 75.0431C61.2077 74.401 61.2711 74.1502 61.3255 72.264L61.3708 70.5784L62.413 70.2473C70.379 67.6989 76.5235 62.6723 79.4597 56.3313C80.2754 54.5555 80.9913 52.0071 80.9913 50.9034C80.9823 50.1208 80.511 49.2781 79.8132 48.7965L79.496 48.5757L51.266 48.5256C35.7418 48.4955 22.8548 48.4955 22.6282 48.5256Z" fill="white"/>
</svg>
