<svg width="120" height="86" viewBox="0 0 120 86" fill="none" xmlns="http://www.w3.org/2000/svg">
<path d="M12.5365 0.561958C10.3338 1.56957 9.46675 3.02242 9.02153 6.51392C8.55287 9.95855 8.5763 10.4038 9.23242 11.1536C9.91198 11.9738 11.2477 12.0675 11.9506 11.3411C12.4193 10.8959 12.513 10.4975 13.0989 6.44362C13.4972 3.70197 9.32616 3.98316 48.1545 3.98316H81.9915L82.4602 4.59241C82.7648 4.99078 82.9523 5.55317 82.9523 6.11555C82.9523 8.08392 75.9224 70.2045 75.6178 70.7669C75.0085 71.962 75.4303 71.9385 56.0045 71.9385H37.844L37.305 70.2045C36.0162 66.1272 32.6419 63.1043 28.3537 62.1905C26.4322 61.7921 25.5886 61.7921 23.6202 62.1905C21.1598 62.7294 19.5195 63.6199 17.6683 65.4711C15.9108 67.2285 15.1609 68.4236 14.5283 70.5326L14.1533 71.8214H10.7321C7.42809 71.8214 7.28749 71.7979 6.70167 71.259C6.20958 70.7903 6.09242 70.4623 6.09242 69.6187C6.09242 69.0329 6.77197 62.542 7.59212 55.184C8.9278 43.3036 9.06839 41.7335 8.76377 41.054C8.48257 40.351 7.68585 39.8355 6.91257 39.8355C6.7251 39.8355 6.25645 40.1167 5.85809 40.4682L5.1551 41.1243L3.63196 54.8091C2.78838 62.3545 2.10883 69.15 2.10883 69.9233C2.13226 72.3369 3.39763 74.2818 5.62376 75.3129C6.51421 75.7347 7.24063 75.805 10.4978 75.8753C13.6612 75.9456 14.2939 76.0159 14.2939 76.3205C14.2939 77.0469 15.5827 79.8354 16.4498 81.0305C18.6993 84.0768 22.0971 85.764 25.9869 85.764C29.3144 85.764 32.0326 84.6626 34.3056 82.3896C35.8522 80.8665 37.0473 78.8513 37.4925 77.0235L37.7737 75.9221L60.9957 75.969L84.2177 76.0393L84.4754 77.0938C85.1784 79.812 87.8732 83.1629 90.3337 84.4048C93.0284 85.7874 96.4965 86.1623 99.1444 85.389C103.151 84.2174 106.479 80.843 107.533 76.9063L107.791 75.969L111.611 75.8753C114.563 75.805 115.618 75.6878 116.344 75.3597C117.516 74.8677 118.687 73.7429 119.344 72.5244C119.859 71.6105 119.859 71.3996 119.929 58.3943L120 45.225L112.173 33.5555C104.042 21.4172 103.456 20.6908 101.511 20.1519C100.996 20.0113 97.5744 19.9175 93.0987 19.9175C88.9277 19.9175 85.5299 19.8707 85.5299 19.8238C85.5299 19.7535 85.8345 16.9181 86.2329 13.4735C87.0062 6.53735 87.0765 5.2954 86.6547 3.88943C86.2798 2.60062 84.3348 0.655693 83.046 0.280762C82.2962 0.06987 74.0478 -0.000427246 47.8967 -0.000427246H13.7081L12.5365 0.561958ZM87.8966 35.7816C87.8966 48.5291 87.9435 49.0915 89.0448 49.5836C89.3729 49.7476 95.3249 50.6615 102.284 51.6457C109.244 52.6298 115.173 53.4969 115.477 53.5437L116.016 53.6843L115.946 62.2139C115.852 72.7821 116.344 71.7979 111.306 71.8917L107.815 71.962L107.58 70.9544C106.221 65.4711 100.41 61.3469 94.9031 61.9796C89.6775 62.5888 85.9986 65.682 84.452 70.8138L84.1005 71.9385H81.851H79.6248L79.7654 71.1653C79.8592 70.6029 85.0613 24.3463 85.0613 23.9714C85.0613 23.9246 85.6939 23.9011 86.4672 23.9011H87.8732L87.8966 35.7816ZM100.878 24.2292C101.136 24.4166 104.651 29.5016 108.682 35.5473L115.993 46.5139V47.9901C115.993 49.3492 115.969 49.443 115.454 49.443C114.962 49.443 94.739 46.6076 92.8644 46.2795L92.0911 46.1389V35.0317V23.9011H96.2622C99.4491 23.9011 100.527 23.9714 100.878 24.2292ZM29.2675 66.6896C35.3835 69.4781 35.4773 78.0311 29.4081 81.0774C28.4005 81.5695 27.9084 81.6632 26.0104 81.6632C24.1826 81.6632 23.5968 81.5695 22.7063 81.1242C20.9723 80.2807 19.7772 79.0856 18.9336 77.375C18.2307 75.969 18.1604 75.5941 18.1604 73.8132C18.1604 71.4699 18.6993 70.0405 20.1053 68.5642C22.636 65.9397 26.0807 65.2133 29.2675 66.6896ZM99.2616 66.6427C104.3 68.9391 105.495 75.5003 101.605 79.4605C99.4959 81.6163 96.0278 82.3662 93.1456 81.2883C90.1696 80.1869 88.0841 77.1406 88.0841 73.86C88.0841 72.0557 88.3887 71.0247 89.4432 69.4312C91.5756 66.2209 95.6998 65.0258 99.2616 66.6427Z" fill="white"/>
<path d="M1.17147 14.1298C-0.0939011 14.7624 -0.304797 16.3324 0.702817 17.3401C1.17148 17.8087 1.56983 17.8087 18.9805 17.8087H36.8129L37.3753 17.2229C38.1251 16.4965 38.1251 15.4654 37.3987 14.5984L36.8363 13.9423L19.2851 13.8954C5.55343 13.8486 1.64013 13.8954 1.17147 14.1298Z" fill="white"/>
<path d="M0.679554 24.5805C0.281195 25.0023 0 25.5178 0 25.8927C0 26.2677 0.281195 26.7832 0.679554 27.205L1.35911 27.8845H9.84181C19.8242 27.8845 19.918 27.8611 19.918 25.7521C19.918 25.2835 19.7071 24.8382 19.3087 24.4868L18.676 23.9009H10.0293H1.35911L0.679554 24.5805Z" fill="white"/>
<path d="M0.984181 34.1415C0.609255 34.2821 0 35.4538 0 36.063C0 36.3208 0.257762 36.8363 0.562389 37.1878L1.12478 37.8439L15.2782 37.9142C23.0345 37.9611 29.7598 37.9142 30.1816 37.8439C31.7984 37.5393 32.478 35.571 31.3298 34.493L30.7908 33.9775L16.0281 34.0009C7.92032 34.0009 1.14821 34.0712 0.984181 34.1415Z" fill="white"/>
</svg>
