<svg width="31" height="31" viewBox="0 0 31 31" fill="none" xmlns="http://www.w3.org/2000/svg">
<path d="M25.5695 10.0021C25.6697 10.002 25.77 10.0018 25.8732 10.0017C26.0855 10.0016 26.2977 10.0018 26.51 10.0025C26.8359 10.0033 27.1618 10.0025 27.4877 10.0015C27.6934 10.0016 27.8992 10.0018 28.105 10.0021C28.3877 10.0024 28.3877 10.0024 28.6762 10.0026C29.1078 10.0224 29.1078 10.0224 29.2592 10.1749C29.2737 10.422 29.2776 10.6697 29.2774 10.9172C29.2777 11.1582 29.2777 11.1582 29.278 11.4041C29.2775 11.5819 29.2769 11.7596 29.2764 11.9428C29.2764 12.1288 29.2764 12.3148 29.2764 12.5065C29.2764 13.018 29.2756 13.5296 29.2745 14.0411C29.2736 14.5752 29.2735 15.1093 29.2733 15.6433C29.2729 16.6553 29.2716 17.6673 29.2701 18.6792C29.2684 19.8311 29.2676 20.9829 29.2668 22.1347C29.2652 24.5047 29.2626 26.8747 29.2592 29.2446C29.3667 29.2429 29.4742 29.2411 29.585 29.2393C29.7241 29.2379 29.8633 29.2365 30.0066 29.2351C30.1453 29.2333 30.2841 29.2316 30.427 29.2297C30.7729 29.2446 30.7729 29.2446 30.9243 29.3972C30.9432 29.8549 30.9432 29.8549 30.9243 30.3125C30.6626 30.5763 30.3264 30.4842 29.9776 30.4855C29.8627 30.4852 29.7478 30.4848 29.6294 30.4845C29.5082 30.4847 29.387 30.485 29.2622 30.4852C28.853 30.4858 28.4438 30.4853 28.0346 30.4848C27.7425 30.4851 27.4505 30.4853 27.1584 30.4857C26.3628 30.4864 25.5672 30.4861 24.7715 30.4856C23.9409 30.4852 23.1102 30.4856 22.2796 30.4858C20.8843 30.4861 19.4891 30.4857 18.0939 30.485C16.4783 30.4842 14.8628 30.4844 13.2472 30.4853C11.8628 30.486 10.4784 30.4861 9.09403 30.4857C8.26601 30.4854 7.43799 30.4854 6.60997 30.4859C5.83171 30.4863 5.05346 30.486 4.2752 30.4851C3.9887 30.4849 3.70219 30.485 3.41569 30.4853C3.02631 30.4858 2.63695 30.4852 2.24757 30.4845C2.13267 30.4848 2.01778 30.4852 1.8994 30.4855C1.12132 30.4825 1.12132 30.4825 0.952668 30.3125C0.933746 29.8549 0.933746 29.8549 0.952668 29.3972C1.10404 29.2446 1.10404 29.2446 1.44995 29.2297C1.58868 29.2315 1.72742 29.2333 1.87036 29.2351C2.07905 29.2372 2.07905 29.2372 2.29195 29.2393C2.45323 29.2419 2.45323 29.2419 2.61776 29.2446C2.61742 29.136 2.61709 29.0274 2.61674 28.9155C2.61371 27.8941 2.6114 26.8726 2.60991 25.8512C2.60912 25.326 2.60805 24.8008 2.60634 24.2756C2.60439 23.6724 2.60365 23.0692 2.60298 22.466C2.60219 22.2765 2.60141 22.0871 2.60061 21.8919C2.60059 21.6308 2.60059 21.6308 2.60057 21.3644C2.60024 21.2103 2.5999 21.0561 2.59955 20.8973C2.61776 20.5489 2.61776 20.5489 2.76913 20.3963C3.10313 20.381 3.43762 20.3763 3.77197 20.376C3.87219 20.3759 3.97241 20.3757 4.07567 20.3756C4.28792 20.3755 4.50017 20.3758 4.71242 20.3764C5.03834 20.3772 5.36422 20.3764 5.69013 20.3754C5.8959 20.3755 6.10167 20.3757 6.30745 20.376C6.59019 20.3763 6.59019 20.3763 6.87864 20.3766C7.31028 20.3963 7.31028 20.3963 7.46166 20.5489C7.47584 20.8204 7.47943 21.0925 7.47884 21.3644C7.47883 21.5385 7.47882 21.7126 7.47881 21.8919C7.47802 22.0814 7.47724 22.2708 7.47644 22.466C7.47622 22.6588 7.47601 22.8515 7.47579 23.0502C7.47508 23.5636 7.47372 24.077 7.47205 24.5904C7.4705 25.1139 7.46981 25.6375 7.46905 26.161C7.46737 27.1889 7.46476 28.2168 7.46166 29.2446C8.2609 29.2446 9.06014 29.2446 9.8836 29.2446C9.88327 29.0519 9.88293 28.8592 9.88259 28.6607C9.87952 26.849 9.87725 25.0373 9.87576 23.2256C9.87497 22.294 9.8739 21.3625 9.87218 20.431C9.87055 19.5328 9.86964 18.6347 9.86924 17.7365C9.86896 17.393 9.86841 17.0495 9.8676 16.706C9.86651 16.2267 9.86635 15.7474 9.86642 15.2681C9.86588 15.1245 9.86533 14.981 9.86477 14.8331C9.86634 13.8537 9.86634 13.8537 10.035 13.6838C10.369 13.6685 10.7035 13.6638 11.0378 13.6635C11.138 13.6634 11.2383 13.6632 11.3415 13.6631C11.5538 13.6629 11.766 13.6632 11.9783 13.6639C12.3042 13.6647 12.6301 13.6639 12.956 13.6629C13.1617 13.663 13.3675 13.6632 13.5733 13.6635C13.856 13.6638 13.856 13.6638 14.1445 13.664C14.5761 13.6838 14.5761 13.6838 14.7275 13.8363C14.7419 14.3147 14.7465 14.7897 14.7447 15.2681C14.7447 15.4184 14.7447 15.5687 14.7448 15.7236C14.7446 16.223 14.7435 16.7224 14.7423 17.2218C14.742 17.567 14.7418 17.9123 14.7416 18.2575C14.7411 19.1682 14.7396 20.0788 14.7379 20.9895C14.7364 21.918 14.7357 22.8464 14.7349 23.7749C14.7333 25.5982 14.7307 27.4214 14.7275 29.2446C15.5267 29.2446 16.326 29.2446 17.1495 29.2446C17.1487 28.9081 17.1479 28.5715 17.147 28.2247C17.1445 27.1153 17.1429 26.0059 17.1416 24.8964C17.1408 24.2235 17.1397 23.5505 17.138 22.8776C17.1364 22.2287 17.1355 21.5798 17.1351 20.9309C17.1348 20.6828 17.1343 20.4347 17.1334 20.1865C17.1324 19.8402 17.1322 19.4939 17.1323 19.1476C17.1319 18.9501 17.1316 18.7526 17.1312 18.5491C17.1495 18.1079 17.1495 18.1079 17.3008 17.9554C17.6348 17.9401 17.9693 17.9354 18.3037 17.9351C18.4039 17.935 18.5041 17.9348 18.6074 17.9347C18.8196 17.9346 19.0319 17.9348 19.2441 17.9355C19.57 17.9363 19.8959 17.9355 20.2218 17.9345C20.4276 17.9346 20.6334 17.9348 20.8391 17.9351C21.1219 17.9354 21.1219 17.9354 21.4103 17.9356C21.842 17.9554 21.842 17.9554 21.9933 18.1079C22.0076 18.4542 22.0111 18.801 22.0105 19.1476C22.0106 19.2562 22.0106 19.3649 22.0106 19.4768C22.0105 19.8375 22.0093 20.1983 22.0081 20.559C22.0078 20.8085 22.0076 21.0579 22.0075 21.3074C22.0069 21.9653 22.0054 22.6231 22.0037 23.281C22.0022 23.9518 22.0015 24.6225 22.0007 25.2933C21.9991 26.6104 21.9965 27.9275 21.9933 29.2446C22.7926 29.2446 23.5918 29.2446 24.4153 29.2446C24.415 29.0061 24.4146 28.7675 24.4143 28.5217C24.4112 26.2789 24.4089 24.0362 24.4075 21.7934C24.4067 20.6402 24.4056 19.4871 24.4039 18.3339C24.4024 17.3292 24.4014 16.3244 24.4011 15.3197C24.4009 14.7873 24.4004 14.255 24.3993 13.7227C24.3981 13.1294 24.398 12.5361 24.3981 11.9428C24.3976 11.765 24.397 11.5873 24.3965 11.4041C24.3967 11.2434 24.3969 11.0828 24.3971 10.9172C24.3969 10.7065 24.3969 10.7065 24.3967 10.4915C24.4374 9.79842 25.0012 10.0026 25.5695 10.0021ZM25.7776 11.2428C25.7776 17.1834 25.7776 23.124 25.7776 29.2446C26.477 29.2446 27.1763 29.2446 27.8968 29.2446C27.8968 23.304 27.8968 17.3634 27.8968 11.2428C27.1975 11.2428 26.4982 11.2428 25.7776 11.2428ZM11.246 14.9042C11.246 19.6366 11.246 24.3689 11.246 29.2446C11.9453 29.2446 12.6446 29.2446 13.3652 29.2446C13.3652 24.5123 13.3652 19.78 13.3652 14.9042C12.6658 14.9042 11.9665 14.9042 11.246 14.9042ZM18.5118 19.1758C18.5118 22.4985 18.5118 25.8212 18.5118 29.2446C19.2111 29.2446 19.9105 29.2446 20.631 29.2446C20.631 25.9219 20.631 22.5992 20.631 19.1758C19.9317 19.1758 19.2323 19.1758 18.5118 19.1758ZM3.9801 21.6168C3.9801 24.134 3.9801 26.6512 3.9801 29.2446C4.67944 29.2446 5.37878 29.2446 6.09931 29.2446C6.09931 26.7274 6.09931 24.2102 6.09931 21.6168C5.39997 21.6168 4.70063 21.6168 3.9801 21.6168Z" fill="black"/>
<path d="M27.7456 0.563784C28.485 0.909766 28.9161 1.34417 29.2594 2.08936C29.3735 2.94365 29.3764 3.66604 29.0134 4.454C28.3257 5.18358 28.3257 5.18358 27.7456 5.44563C27.423 5.41584 27.1008 5.38171 26.7789 5.34492C25.7721 5.33363 25.2909 5.57947 24.5863 6.25311C24.3318 6.508 24.0846 6.76734 23.8414 7.03322C23.5902 7.30731 23.3315 7.57214 23.0706 7.83679C22.9068 8.00765 22.7435 8.17896 22.5807 8.35078C22.4653 8.47001 22.4653 8.47001 22.3476 8.59165C22.109 8.84507 22.109 8.84507 21.8421 9.25957C21.8508 9.66763 21.8508 9.66763 21.9935 10.0224C22.0626 10.8705 22.1075 11.6056 21.7475 12.387C21.0552 13.1215 20.5844 13.417 19.5716 13.4549C18.797 13.4259 18.3332 13.3219 17.7551 12.7684C17.4051 12.387 17.4051 12.387 17.1496 11.8531C17.1639 11.5638 17.1798 11.2745 17.1969 10.9854C17.1798 10.4557 17.1282 10.1474 16.7412 9.77498C16.0137 9.22584 15.2269 8.77296 14.4249 8.34423C14.3484 8.39863 14.2718 8.45303 14.193 8.50908C13.5372 8.95247 13.0907 9.20537 12.2773 9.16422C12.1285 9.15911 11.9796 9.154 11.8262 9.14873C11.3975 9.10701 11.3975 9.10701 11.0291 8.97412C10.4789 8.94627 10.2734 9.18901 9.87254 9.54711C9.78258 9.63157 9.69263 9.71604 9.59995 9.80306C9.42059 9.96535 9.24123 10.1276 9.06187 10.2899C8.97353 10.371 8.88518 10.452 8.79416 10.5355C8.5121 10.7937 8.22908 11.0504 7.94314 11.3042C7.85804 11.3803 7.77294 11.4564 7.68526 11.5348C7.46182 11.7005 7.46182 11.7005 7.15908 11.7005C7.20786 11.8077 7.25664 11.9149 7.3069 12.0253C7.63124 12.9423 7.62164 13.9471 7.21584 14.8279C6.52352 15.5624 6.05274 15.8579 5.03988 15.8958C4.02701 15.8579 3.55623 15.5624 2.86391 14.8279C2.50091 14.04 2.50382 13.3176 2.61793 12.4633C2.96286 11.7145 3.39263 11.2905 4.13164 10.9377C4.43744 10.9292 4.74343 10.9267 5.04934 10.9282C6.30322 10.8692 6.97247 10.1632 7.82769 9.33295C8.20532 8.97689 8.60853 8.6589 9.01338 8.33469C9.52661 7.94513 9.52661 7.94513 9.88377 7.42888C9.87901 7.19037 9.86878 6.95195 9.85539 6.71377C9.8495 5.89157 9.99518 5.4906 10.4893 4.8354C11.0616 4.27302 11.5309 4.17885 12.3057 4.14889C13.0803 4.17787 13.544 4.28187 14.1222 4.8354C14.5408 5.35103 14.7158 5.66457 14.8075 6.3288C14.9838 7.07183 15.4226 7.34845 16.0424 7.74413C16.2393 7.86182 16.2393 7.86182 16.4401 7.9819C16.5695 8.06627 16.699 8.15063 16.8324 8.23756C17.3484 8.56502 17.3484 8.56502 17.9065 8.8019C18.1618 8.70833 18.4141 8.60581 18.6633 8.49678C18.9636 8.50159 19.2639 8.51173 19.5639 8.52598C21.0267 8.43139 21.7885 7.37702 22.722 6.35144C22.9022 6.16062 23.0828 5.97022 23.2639 5.78024C23.7033 5.31735 24.1366 4.84926 24.5668 4.37773C24.5169 4.22669 24.4669 4.07566 24.4155 3.92005C24.3416 3.07481 24.3029 2.33361 24.6614 1.55541C25.6058 0.553559 26.4026 0.381571 27.7456 0.563784ZM26.0238 2.18471C25.7041 2.65563 25.6852 2.90223 25.7778 3.46238C26.0049 3.84377 26.0049 3.84377 26.3833 4.07261C26.9391 4.16597 27.1838 4.14692 27.651 3.8247C27.9707 3.35378 27.9896 3.10718 27.897 2.54703C27.67 2.16564 27.67 2.16564 27.2915 1.9368C26.7357 1.84345 26.4911 1.8625 26.0238 2.18471ZM11.4921 5.84609C11.1724 6.31702 11.1535 6.56362 11.2461 7.12376C11.4732 7.50516 11.4732 7.50516 11.8516 7.734C12.4074 7.82735 12.6521 7.8083 13.1193 7.48609C13.4391 7.01516 13.458 6.76857 13.3653 6.20842C13.1383 5.82702 13.1383 5.82702 12.7598 5.59819C12.204 5.50483 11.9594 5.52388 11.4921 5.84609ZM18.7579 10.1177C18.4382 10.5886 18.4193 10.8352 18.512 11.3954C18.739 11.7768 18.739 11.7768 19.1175 12.0056C19.6732 12.099 19.9179 12.0799 20.3852 11.7577C20.7049 11.2868 20.7238 11.0402 20.6312 10.48C20.4041 10.0986 20.4041 10.0986 20.0257 9.8698C19.4699 9.77645 19.2252 9.7955 18.7579 10.1177ZM4.22625 12.5586C3.90654 13.0296 3.88764 13.2762 3.98027 13.8363C4.20733 14.2177 4.20733 14.2177 4.58576 14.4465C5.14155 14.5399 5.38623 14.5208 5.8535 14.1986C6.17321 13.7277 6.19211 13.4811 6.09948 12.921C5.87242 12.5396 5.87242 12.5396 5.49399 12.3107C4.9382 12.2174 4.69352 12.2364 4.22625 12.5586Z" fill="black"/>
</svg>
