<svg width="31" height="31" viewBox="0 0 31 31" fill="none" xmlns="http://www.w3.org/2000/svg">
<path d="M20.9524 19.25H13.5745C12.7408 19.25 11.9945 18.7329 11.7018 17.9522L8.94515 10.6011C8.69999 9.94737 9.18327 9.25 9.88148 9.25H24.7614C25.8765 9.25 26.6017 10.4235 26.1031 11.4208L22.7413 18.1444C22.4025 18.822 21.71 19.25 20.9524 19.25Z" fill="black"/>
<circle cx="22.1885" cy="25.5" r="1.25" fill="black"/>
<circle cx="12.1885" cy="25.5" r="1.25" fill="black"/>
<path d="M22.8135 22.375H11.0021C10.5078 22.375 10.2607 22.375 10.0838 22.3052C9.72018 22.1617 9.47354 21.8195 9.45237 21.4292C9.44207 21.2392 9.52022 21.0048 9.67653 20.5359V20.5359C9.84984 20.0159 9.93649 19.7559 10.071 19.546C10.3451 19.1183 10.7715 18.811 11.2638 18.6862C11.5056 18.625 11.7796 18.625 12.3277 18.625H21.5635" stroke="black" stroke-linecap="round" stroke-linejoin="round"/>
<path d="M5.31348 6.125H7.62196C8.31768 6.125 8.66554 6.125 8.92743 6.31376C9.18932 6.50252 9.29932 6.83253 9.51932 7.49254L10.3135 9.875" stroke="black" stroke-linecap="round"/>
</svg>
