<svg width="42" height="40" viewBox="0 0 42 40" fill="none" xmlns="http://www.w3.org/2000/svg">
<path d="M32.2834 35.8333L21.9873 10.8333M37.4314 7.5L4.82715 14.1667" stroke="#7E869E" stroke-opacity="0.25"/>
<path d="M4.82715 7.36662C4.82715 6.24652 4.82715 5.68647 5.04514 5.25864C5.23688 4.88232 5.54284 4.57636 5.91917 4.38461C6.34699 4.16663 6.90704 4.16663 8.02715 4.16663H34.2314C35.3515 4.16663 35.9115 4.16663 36.3394 4.38461C36.7157 4.57636 37.0217 4.88232 37.2134 5.25864C37.4314 5.68647 37.4314 6.24652 37.4314 7.36663V32.6333C37.4314 33.7534 37.4314 34.3134 37.2134 34.7413C37.0217 35.1176 36.7157 35.4236 36.3394 35.6153C35.9115 35.8333 35.3515 35.8333 34.2314 35.8333H8.02715C6.90704 35.8333 6.34699 35.8333 5.91917 35.6153C5.54284 35.4236 5.23688 35.1176 5.04514 34.7413C4.82715 34.3134 4.82715 33.7534 4.82715 32.6333V7.36662Z" stroke="white" stroke-width="0.45" stroke-linecap="round"/>
<path d="M21.9877 25.049C21.9877 28.9069 17.7645 31.534 16.4008 32.2817C16.1374 32.4261 15.8258 32.4261 15.5625 32.2817C14.1988 31.534 9.97559 28.9069 9.97559 25.049C9.97559 21.5196 12.8857 19.1666 15.9816 19.1666C19.1849 19.1666 21.9877 21.5196 21.9877 25.049Z" stroke="white"/>
<ellipse cx="15.9816" cy="25" rx="1.71601" ry="1.66667" fill="white"/>
</svg>
