<svg width="31" height="31" viewBox="0 0 31 31" fill="none" xmlns="http://www.w3.org/2000/svg">
<path d="M20.3135 6.75C22.0691 6.75 22.9468 6.75 23.5774 7.17133C23.8504 7.35372 24.0848 7.5881 24.2672 7.86107C24.6885 8.49163 24.6885 9.36942 24.6885 11.125V23C24.6885 25.357 24.6885 26.5355 23.9562 27.2678C23.224 28 22.0455 28 19.6885 28H12.1885C9.83145 28 8.65294 28 7.92071 27.2678C7.18848 26.5355 7.18848 25.357 7.18848 23V11.125C7.18848 9.36942 7.18848 8.49163 7.6098 7.86107C7.7922 7.5881 8.02658 7.35372 8.29955 7.17133C8.93011 6.75 9.8079 6.75 11.5635 6.75" stroke="black" stroke-width="2"/>
<path d="M12.1885 6.75C12.1885 5.36929 13.3078 4.25 14.6885 4.25H17.1885C18.5692 4.25 19.6885 5.36929 19.6885 6.75C19.6885 8.13071 18.5692 9.25 17.1885 9.25H14.6885C13.3078 9.25 12.1885 8.13071 12.1885 6.75Z" stroke="black" stroke-width="2"/>
<path d="M12.1885 15.5L19.6885 15.5" stroke="black" stroke-width="2" stroke-linecap="round"/>
<path d="M12.1885 20.5L17.1885 20.5" stroke="black" stroke-width="2" stroke-linecap="round"/>
</svg>
