<svg width="31" height="31" viewBox="0 0 31 31" fill="none" xmlns="http://www.w3.org/2000/svg">
<path d="M4.52016 17.4445C3.99145 16.4941 3.7271 16.0188 3.7271 15.5C3.7271 14.9812 3.99145 14.5059 4.52016 13.5555L6.47715 10.0375L8.54533 6.5837C9.10408 5.6506 9.38346 5.18406 9.83279 4.92464C10.2821 4.66521 10.8258 4.65654 11.9133 4.6392L15.9385 4.575L19.9636 4.6392C21.0511 4.65654 21.5948 4.66521 22.0442 4.92463C22.4935 5.18406 22.7729 5.6506 23.3316 6.5837L25.3998 10.0375L27.3568 13.5555C27.8855 14.5059 28.1499 14.9812 28.1499 15.5C28.1499 16.0188 27.8855 16.4941 27.3568 17.4445L25.3998 20.9625L23.3316 24.4163C22.7729 25.3494 22.4935 25.8159 22.0442 26.0754C21.5948 26.3348 21.0511 26.3435 19.9636 26.3608L15.9385 26.425L11.9133 26.3608C10.8258 26.3435 10.2821 26.3348 9.83279 26.0754C9.38346 25.8159 9.10408 25.3494 8.54533 24.4163L6.47715 20.9625L4.52016 17.4445Z" stroke="#010101" stroke-width="2"/>
<circle cx="15.9385" cy="15.5" r="3.75" stroke="#010101" stroke-width="2"/>
</svg>
